<?xml version="1.0" standalone="no"?>
<!DOCTYPE svg PUBLIC "-//W3C//DTD SVG 20010904//EN"
 "http://www.w3.org/TR/2001/REC-SVG-20010904/DTD/svg10.dtd">
<svg version="1.0" xmlns="http://www.w3.org/2000/svg"
 width="520.000000pt" height="520.000000pt" viewBox="0 0 520.000000 520.000000"
 preserveAspectRatio="xMidYMid meet">
<metadata>
Created by potrace 1.11, written by Peter Selinger 2001-2013
</metadata>
<g transform="translate(0.000000,520.000000) scale(0.100000,-0.100000)"
fill="#000000" stroke="none">
<path d="M1924 3490 c-97 -20 -180 -83 -223 -168 -58 -115 -56 -94 -56 -767
l0 -620 23 -63 c41 -114 101 -185 189 -224 56 -25 156 -33 223 -19 l53 11 43
-44 c50 -53 80 -69 156 -86 87 -20 88 -18 88 109 l0 109 -34 12 c-18 6 -43 21
-54 33 l-22 23 23 54 c22 55 22 60 25 675 3 452 0 635 -9 675 -27 125 -117
241 -215 274 -59 20 -157 28 -210 16z m131 -277 c9 -9 21 -27 26 -40 5 -14 9
-282 9 -616 0 -544 -1 -595 -18 -626 -31 -63 -104 -62 -139 1 -17 31 -18 74
-18 618 0 322 3 597 8 613 4 15 16 36 27 47 25 25 82 26 105 3z"/>
<path d="M780 2560 l0 -920 135 0 135 0 2 368 3 367 65 7 c197 22 333 146 385
353 27 105 25 296 -4 400 -30 107 -64 166 -133 230 -96 89 -195 115 -440 115
l-148 0 0 -920z m400 612 c58 -43 65 -72 65 -252 0 -144 -2 -169 -19 -196 -25
-41 -64 -64 -126 -71 l-50 -6 0 278 0 278 52 -6 c29 -4 64 -15 78 -25z"/>
<path d="M2474 3453 c4 -15 66 -252 137 -526 l129 -499 0 -394 0 -394 135 0
135 0 0 387 0 386 135 518 c74 286 135 526 135 534 0 13 -21 15 -130 15 -71 0
-130 -3 -130 -6 0 -21 -134 -581 -140 -588 -10 -10 -6 -28 -85 317 l-62 272
-133 3 -132 3 6 -28z"/>
<path d="M3407 3474 c-4 -4 -7 -418 -7 -921 l0 -913 125 0 125 0 0 615 c0 403
3 615 10 615 6 0 10 -4 10 -10 0 -5 41 -280 90 -611 50 -331 90 -604 90 -605
0 -2 27 -4 60 -4 41 0 60 4 60 13 0 29 179 1209 184 1215 3 3 6 -272 6 -611
l0 -617 125 0 125 0 0 920 0 920 -159 0 c-88 0 -162 -4 -165 -8 -3 -5 -42
-204 -87 -443 -101 -540 -91 -497 -101 -424 -5 33 -43 242 -86 465 l-78 405
-160 3 c-88 1 -163 -1 -167 -4z"/>
</g>
</svg>
